<svg xmlns="http://www.w3.org/2000/svg" viewBox="0 0 48 48"><path d="M25.2 19.2H30v-4.8h-4.8v4.8zm1.2-12h-4.8V12h4.8V7.2zm-8.4 12h4.8v-4.8H18v4.8zm1.2-12h-4.8V12h4.8V7.2zM24 48l9.6-9.6H14.4L24 48zm9.6-40.8h-4.8V12h4.8V7.2zM13.2 26.4h21.6v-4.8H13.2v4.8zM12 7.2H7.2V12H12V7.2zm20.4 12h4.8v-4.8h-4.8v4.8zM36 12h4.8V7.2H36V12zm7.2-12H4.8A4.8 4.8 0 0 0 0 4.8v24a4.8 4.8 0 0 0 4.8 4.8h38.4a4.8 4.8 0 0 0 4.8-4.8v-24A4.8 4.8 0 0 0 43.2 0zm2.4 28.8a2.4 2.4 0 0 1-2.4 2.4H4.8a2.4 2.4 0 0 1-2.4-2.4v-24a2.4 2.4 0 0 1 2.4-2.4h38.4a2.4 2.4 0 0 1 2.4 2.4v24zm-30-14.4h-4.8v4.8h4.8v-4.8z"/></svg>